<?xml version="1.0" encoding="UTF-8" standalone="no"?>
<svg xmlns="http://www.w3.org/2000/svg" width="10.0in" height="10.0000in" viewBox="0 0 1024 1024" version="1.1">
  <g fill="#FFFFFF" fill-rule="evenodd" stroke="none">
    <path d="M 824 776 L 824 778 L 827 778 L 830 781 L 830 820 L 828 822 L 824 823 L 824 825 L 861 825 L 862 824 L 863 812 L 861 812 L 860 816 L 854 821 L 844 822 L 841 821 L 838 818 L 838 802 L 839 801 L 848 801 L 851 803 L 852 807 L 854 807 L 854 792 L 852 792 L 852 794 L 847 798 L 839 798 L 838 797 L 838 780 L 839 779 L 850 779 L 856 784 L 857 788 L 859 788 L 859 776 Z M 746 776 L 746 778 L 749 778 L 752 781 L 752 820 L 750 822 L 746 823 L 746 825 L 766 825 L 766 823 L 763 822 L 760 819 L 760 781 L 763 778 L 766 778 L 766 776 Z M 689 776 L 689 778 L 694 780 L 712 824 L 716 825 L 733 782 L 737 778 L 739 778 L 739 776 L 725 776 L 725 778 L 727 778 L 729 780 L 729 783 L 717 814 L 715 812 L 704 783 L 704 780 L 709 778 L 709 776 Z M 647 776 L 647 778 L 650 778 L 653 781 L 653 820 L 651 822 L 647 823 L 647 825 L 668 825 L 668 823 L 664 822 L 661 819 L 661 804 L 662 803 L 666 803 L 671 808 L 675 817 L 680 823 L 685 825 L 692 825 L 692 823 L 689 822 L 686 819 L 679 806 L 674 801 L 680 798 L 684 793 L 684 784 L 679 778 L 673 776 Z M 662 779 L 669 779 L 676 786 L 676 793 L 671 799 L 668 800 L 662 800 L 661 799 L 661 780 Z M 601 776 L 601 778 L 604 778 L 607 780 L 607 787 L 608 788 L 607 820 L 605 822 L 601 823 L 601 825 L 639 825 L 640 812 L 638 812 L 637 816 L 633 820 L 627 822 L 621 822 L 618 821 L 615 818 L 615 802 L 616 801 L 625 801 L 628 803 L 629 807 L 631 807 L 631 792 L 629 792 L 629 794 L 624 798 L 616 798 L 615 797 L 615 780 L 616 779 L 628 779 L 632 781 L 635 786 L 635 788 L 637 788 L 637 776 Z M 498 776 L 498 778 L 502 778 L 504 780 L 504 784 L 505 785 L 505 815 L 504 816 L 504 820 L 502 822 L 498 823 L 498 825 L 534 825 L 536 810 L 534 810 L 532 816 L 527 821 L 517 822 L 514 821 L 512 818 L 512 780 L 515 778 L 518 778 L 518 776 Z M 417 776 L 417 778 L 420 778 L 423 780 L 423 785 L 424 786 L 424 816 L 423 820 L 421 822 L 418 822 L 417 825 L 438 825 L 438 823 L 434 822 L 431 818 L 431 781 L 434 778 L 438 778 L 438 776 Z M 305 776 L 305 778 L 309 778 L 313 781 L 313 819 L 310 822 L 308 822 L 307 825 L 323 825 L 323 823 L 319 822 L 317 820 L 317 816 L 316 815 L 316 786 L 317 785 L 350 826 L 352 826 L 353 825 L 353 782 L 355 779 L 359 778 L 359 776 L 342 776 L 342 778 L 346 778 L 349 781 L 350 784 L 350 811 L 349 812 L 320 776 Z M 195 776 L 195 778 L 199 778 L 203 781 L 203 818 L 200 822 L 196 823 L 196 825 L 213 825 L 213 823 L 209 822 L 206 817 L 206 786 L 207 785 L 239 825 L 242 825 L 243 781 L 246 778 L 248 778 L 248 776 L 232 776 L 232 778 L 235 778 L 239 781 L 239 809 L 240 810 L 239 812 L 210 776 Z M 166 776 L 166 778 L 170 778 L 173 781 L 173 820 L 171 822 L 167 823 L 167 825 L 188 825 L 188 823 L 184 822 L 181 819 L 181 781 L 184 778 L 188 778 L 188 776 Z M 124 776 L 124 778 L 127 778 L 130 781 L 130 819 L 128 822 L 124 823 L 124 825 L 144 825 L 144 823 L 140 822 L 138 820 L 138 804 L 137 803 L 138 802 L 148 802 L 151 806 L 151 809 L 153 809 L 153 793 L 151 793 L 149 798 L 138 799 L 137 798 L 138 797 L 138 780 L 139 779 L 150 779 L 155 783 L 156 788 L 158 788 L 158 776 Z M 892 775 L 882 775 L 877 777 L 872 783 L 871 791 L 875 798 L 886 804 L 893 810 L 894 817 L 889 822 L 882 823 L 878 821 L 874 817 L 872 811 L 870 811 L 871 823 L 872 824 L 880 825 L 881 826 L 891 825 L 895 823 L 900 816 L 901 809 L 898 802 L 893 798 L 883 793 L 878 788 L 878 783 L 883 778 L 890 778 L 895 782 L 897 788 L 899 788 L 898 777 Z M 782 780 L 776 787 L 773 795 L 773 807 L 775 813 L 779 819 L 786 824 L 794 826 L 804 826 L 815 823 L 816 822 L 816 811 L 814 811 L 812 817 L 808 821 L 803 823 L 798 823 L 792 821 L 785 814 L 782 806 L 782 793 L 784 787 L 790 780 L 794 778 L 806 779 L 811 783 L 813 790 L 815 790 L 815 777 L 807 776 L 806 775 L 794 775 L 787 777 Z M 585 775 L 575 775 L 570 777 L 565 783 L 564 791 L 568 798 L 581 805 L 586 810 L 587 817 L 582 822 L 575 823 L 571 821 L 567 817 L 565 811 L 563 811 L 564 823 L 565 824 L 573 826 L 580 826 L 588 823 L 593 817 L 594 808 L 591 802 L 586 798 L 576 793 L 571 788 L 571 783 L 575 778 L 583 778 L 588 782 L 590 788 L 592 788 L 591 777 Z M 470 775 L 464 777 L 449 819 L 446 822 L 443 822 L 443 825 L 459 825 L 459 823 L 455 822 L 453 820 L 457 808 L 473 808 L 475 810 L 478 820 L 476 822 L 472 823 L 472 825 L 492 825 L 492 823 L 489 822 L 486 819 Z M 465 785 L 472 802 L 471 805 L 459 805 L 458 804 L 463 788 Z M 376 779 L 369 786 L 365 797 L 365 805 L 367 812 L 370 817 L 375 822 L 387 826 L 396 826 L 407 823 L 409 818 L 409 811 L 406 812 L 404 818 L 399 822 L 391 823 L 382 819 L 378 815 L 375 809 L 374 796 L 375 795 L 375 791 L 378 785 L 383 780 L 387 778 L 399 779 L 404 784 L 406 790 L 408 790 L 408 778 L 405 776 L 400 776 L 399 775 L 386 775 Z M 278 775 L 273 776 L 259 815 L 254 822 L 250 823 L 250 825 L 267 825 L 267 823 L 262 821 L 262 816 L 265 808 L 282 808 L 283 809 L 284 814 L 286 817 L 286 820 L 281 823 L 281 825 L 300 825 L 300 823 L 297 822 L 294 818 L 293 813 L 291 810 L 290 805 Z M 273 785 L 275 787 L 277 795 L 281 803 L 280 805 L 267 805 L 266 804 Z M 816 639 L 815 662 L 814 665 L 819 665 L 823 654 L 828 649 L 835 646 L 846 646 L 847 647 L 847 719 L 845 727 L 842 729 L 833 731 L 833 735 L 837 735 L 838 734 L 868 734 L 869 735 L 876 735 L 876 731 L 870 730 L 866 728 L 863 723 L 863 647 L 864 646 L 873 646 L 880 648 L 887 654 L 891 666 L 895 666 L 893 639 Z M 681 640 L 677 648 L 676 653 L 674 656 L 673 661 L 671 664 L 670 669 L 668 672 L 667 677 L 665 680 L 651 719 L 646 728 L 637 731 L 637 735 L 640 734 L 666 734 L 669 735 L 670 734 L 670 731 L 661 729 L 659 727 L 660 717 L 666 702 L 698 702 L 699 703 L 706 723 L 706 727 L 702 730 L 696 731 L 695 732 L 696 735 L 700 735 L 701 734 L 736 734 L 736 731 L 728 729 L 723 722 L 692 639 Z M 681 657 L 696 694 L 695 696 L 669 696 L 668 695 L 668 692 L 670 689 L 675 672 Z M 570 639 L 570 644 L 577 645 L 582 650 L 582 725 L 579 729 L 570 731 L 570 734 L 573 735 L 577 734 L 604 734 L 605 735 L 611 734 L 611 731 L 602 728 L 599 724 L 599 717 L 598 716 L 598 691 L 599 690 L 617 690 L 620 691 L 625 698 L 626 705 L 630 705 L 630 670 L 626 670 L 624 678 L 618 683 L 599 683 L 598 682 L 598 647 L 599 646 L 619 646 L 627 649 L 632 654 L 635 663 L 639 664 L 638 640 L 637 639 Z M 465 639 L 465 644 L 469 644 L 474 646 L 476 648 L 476 652 L 477 653 L 477 723 L 476 726 L 473 729 L 465 731 L 466 735 L 471 735 L 472 734 L 496 734 L 497 735 L 521 734 L 534 730 L 540 727 L 549 720 L 557 709 L 562 694 L 562 676 L 561 675 L 561 671 L 557 661 L 549 651 L 535 643 L 518 639 Z M 494 646 L 502 646 L 503 645 L 514 646 L 527 651 L 536 660 L 542 673 L 542 677 L 543 678 L 543 696 L 542 697 L 541 705 L 537 713 L 528 722 L 518 727 L 514 728 L 501 728 L 496 726 L 493 721 L 493 647 Z M 403 640 L 399 648 L 398 653 L 396 656 L 395 661 L 393 664 L 392 669 L 382 693 L 373 719 L 370 725 L 366 729 L 359 731 L 359 734 L 392 734 L 392 731 L 386 730 L 381 726 L 382 717 L 388 702 L 420 702 L 421 703 L 428 722 L 428 727 L 424 730 L 418 731 L 418 735 L 426 735 L 427 734 L 458 734 L 458 731 L 452 730 L 446 725 L 414 639 Z M 403 657 L 405 659 L 413 683 L 418 694 L 417 696 L 391 696 L 390 695 L 395 678 L 397 675 Z M 278 639 L 278 644 L 285 645 L 289 650 L 289 725 L 287 728 L 278 731 L 278 735 L 289 735 L 290 734 L 315 734 L 316 735 L 335 734 L 336 735 L 349 735 L 351 730 L 353 710 L 351 709 L 348 710 L 346 717 L 340 724 L 329 728 L 315 728 L 311 727 L 306 722 L 306 711 L 305 710 L 305 690 L 306 689 L 321 689 L 325 690 L 329 694 L 331 702 L 335 702 L 335 670 L 331 670 L 329 678 L 324 682 L 320 682 L 319 683 L 306 683 L 305 682 L 305 647 L 306 646 L 325 646 L 332 648 L 339 655 L 341 663 L 345 664 L 346 661 L 345 660 L 344 639 Z M 191 639 L 189 665 L 194 665 L 195 660 L 198 654 L 204 648 L 209 646 L 220 646 L 221 647 L 221 723 L 218 728 L 208 731 L 208 735 L 212 735 L 213 734 L 247 734 L 250 735 L 250 731 L 242 729 L 238 725 L 237 722 L 237 647 L 238 646 L 247 646 L 257 650 L 260 653 L 263 659 L 264 666 L 269 666 L 267 639 Z M 770 638 L 761 641 L 751 650 L 747 660 L 747 671 L 750 678 L 755 684 L 764 690 L 777 696 L 787 704 L 790 710 L 790 718 L 788 723 L 784 727 L 778 730 L 769 730 L 763 728 L 755 721 L 752 716 L 749 707 L 745 707 L 745 717 L 746 718 L 747 732 L 759 735 L 764 735 L 765 736 L 780 736 L 793 731 L 800 724 L 803 719 L 805 712 L 805 702 L 802 694 L 795 686 L 774 675 L 764 667 L 761 661 L 761 656 L 763 651 L 769 645 L 781 644 L 788 647 L 791 650 L 796 659 L 797 665 L 800 665 L 801 664 L 800 647 L 799 646 L 799 641 L 796 640 L 785 639 L 784 638 Z M 146 638 L 136 642 L 128 649 L 124 658 L 124 663 L 123 664 L 124 673 L 127 679 L 134 686 L 155 697 L 165 706 L 167 712 L 166 720 L 157 729 L 145 730 L 138 727 L 132 722 L 128 715 L 126 707 L 121 707 L 121 713 L 122 714 L 122 722 L 123 723 L 123 731 L 124 732 L 141 736 L 156 736 L 169 731 L 178 722 L 181 714 L 181 700 L 177 692 L 171 686 L 150 675 L 139 665 L 138 655 L 140 650 L 144 646 L 149 644 L 158 644 L 163 646 L 169 652 L 172 658 L 173 664 L 177 665 L 176 641 L 168 640 L 167 639 L 161 639 L 160 638 Z M 511 59 L 504 64 L 308 176 L 308 368 L 309 369 L 309 377 L 310 378 L 310 384 L 311 385 L 311 390 L 314 400 L 314 404 L 324 434 L 335 456 L 343 469 L 365 497 L 395 526 L 432 553 L 461 570 L 481 580 L 483 580 L 494 586 L 496 586 L 511 593 L 514 593 L 542 580 L 544 580 L 580 561 L 608 543 L 629 527 L 660 497 L 670 485 L 684 465 L 698 439 L 708 412 L 713 391 L 714 379 L 715 378 L 715 370 L 716 369 L 716 352 L 717 351 L 717 177 L 675 152 L 642 134 L 635 129 L 527 68 L 513 59 Z M 509 447 L 514 447 L 519 451 L 519 471 L 518 472 L 505 472 L 504 471 L 504 451 Z M 507 392 L 512 391 L 517 393 L 519 396 L 519 415 L 518 416 L 505 416 L 504 415 L 504 395 Z M 509 338 L 514 338 L 519 342 L 519 361 L 518 362 L 505 362 L 504 361 L 504 342 Z M 523 216 L 540 216 L 541 217 L 541 256 L 540 257 L 523 256 L 522 255 L 522 217 Z M 484 216 L 501 216 L 502 217 L 502 255 L 501 256 L 490 256 L 489 257 L 484 257 L 483 256 L 483 217 Z M 511 82 L 513 82 L 697 188 L 697 361 L 696 362 L 696 371 L 695 372 L 695 379 L 694 380 L 692 395 L 687 410 L 687 413 L 685 416 L 682 426 L 675 441 L 665 458 L 644 485 L 621 507 L 619 506 L 617 502 L 598 479 L 577 469 L 575 467 L 572 439 L 571 438 L 571 431 L 570 430 L 570 423 L 569 422 L 568 406 L 567 405 L 567 398 L 566 397 L 566 390 L 565 389 L 565 382 L 564 381 L 564 374 L 563 373 L 563 366 L 562 365 L 562 358 L 561 357 L 559 333 L 558 332 L 558 325 L 557 324 L 557 316 L 556 315 L 556 308 L 555 307 L 555 301 L 566 292 L 566 266 L 564 264 L 552 260 L 550 258 L 550 215 L 554 214 L 557 211 L 557 207 L 548 198 L 538 191 L 528 186 L 516 183 L 516 171 L 517 170 L 526 170 L 529 168 L 529 163 L 527 161 L 517 161 L 516 160 L 516 147 L 514 145 L 509 145 L 507 147 L 506 150 L 506 158 L 507 159 L 505 161 L 495 161 L 493 163 L 493 168 L 496 170 L 506 170 L 507 171 L 507 182 L 505 184 L 500 184 L 488 189 L 474 199 L 466 208 L 466 211 L 469 214 L 473 214 L 474 215 L 474 258 L 472 260 L 464 262 L 458 266 L 458 292 L 468 301 L 471 301 L 476 295 L 486 291 L 494 290 L 495 289 L 501 289 L 502 288 L 523 288 L 529 290 L 529 297 L 528 298 L 527 297 L 498 298 L 497 299 L 480 302 L 468 306 L 467 321 L 466 322 L 464 346 L 463 347 L 463 354 L 462 355 L 461 371 L 460 372 L 460 379 L 459 380 L 459 387 L 458 388 L 457 404 L 456 405 L 456 412 L 455 413 L 455 420 L 454 421 L 451 449 L 443 454 L 434 457 L 430 461 L 403 498 L 398 502 L 373 476 L 355 451 L 342 426 L 334 403 L 331 386 L 330 385 L 330 380 L 329 379 L 328 360 L 327 359 L 327 188 Z M 576 264 L 576 270 L 605 286 L 614 292 L 620 294 L 620 292 L 607 284 L 604 281 L 580 265 Z M 448 264 L 445 264 L 405 291 L 404 293 L 402 293 L 402 295 L 404 295 L 405 293 L 411 291 L 413 289 L 448 270 Z M 454 237 L 440 237 L 439 238 L 428 238 L 427 239 L 390 241 L 390 243 L 441 243 L 442 244 L 454 244 Z M 569 236 L 569 244 L 582 244 L 583 243 L 633 243 L 633 241 L 623 241 L 622 240 L 611 240 L 610 239 L 598 239 L 597 238 L 586 238 L 585 237 Z M 399 191 L 399 193 L 442 218 L 453 217 L 453 215 L 449 213 L 447 213 L 425 202 L 423 202 L 401 191 Z M 627 190 L 625 190 L 581 211 L 579 211 L 571 215 L 571 217 L 581 218 L 627 192 Z"/>
  </g>
</svg>
